<svg xmlns="http://www.w3.org/2000/svg" version="1" viewBox="0 0 552.7 553.5"><path d="M215 1.5c-6.9 1.6-16.2 4.2-19.5 5.5L189 9a41 41 0 0 0-17.2 9.2c-3.4 4.1-4.5 8.8-5.4 23.3a413 413 0 0 1-1 14.5c0 1.4-.3 3.1-.3 3.7 0 .7-2 2.2-4.3 3.4-2.4 1.2-8 4.4-12.6 7.2l-8.2 5-8.8-4.5-14.2-7.4a20.8 20.8 0 0 0-12-2.9c-8.7 0-11.7 2-28.7 19.2-16.5 16.7-18.8 20.3-18.8 29.9 0 6.3.4 7.6 3.6 13a107 107 0 0 1 11 22.2c-.2.9-1.7 4.2-3.6 7.2l-6 10.5c-4.5 8.8-3.6 8.4-18 8.6-7.6.1-15.2.7-18.3 1.6A22.7 22.7 0 0 0 11 186.2a60 60 0 0 1-2 5.3c-.4.5-1.3 3.7-2 7s-1.6 6.4-2 7c-.4.5-1.2 4.4-1.9 8.5a77 77 0 0 1-2.2 9.8c-2.5 6.4.3 17.3 6 22.4 1.4 1.3 8 5.7 14.4 9.7 6.4 4.1 12 7.8 12.3 8.3.3.5.7 7.4 1 15.4l.3 14.4-13.7 9C4.2 314.2 2 316.9 2 327.7c0 6.7 1.2 14 3 18.8.5 1.1 1.4 4.2 2 7 2 8 5.8 18.4 8.5 23.1 2 3.2 4 5 8.7 7.3 6 3 6.4 3.1 20.7 3.1 8 0 15.1.4 15.6.8 1 .7 7.5 10.9 7.5 11.8 0 .3 1.8 3.2 4 6.4s4 6.3 4 6.7c0 .5-2.9 6.5-6.5 13.3-7.2 13.6-9 19.3-7.9 25.5 1 6.2 2.7 8.8 13.7 20.2 15.4 16 22.5 21.8 29.2 23.7 7.6 2.3 8.2 2.1 30.3-9.5 9.8-5.1 12-5.7 14-3.7.7.7 6 3.8 11.5 6.8l10.2 5.5 1.1 8.5c.7 4.7 1.3 12.4 1.3 17.1.1 8 .3 9 3.4 13.5 5 7.5 12.4 10.7 41.2 17.4 14.1 3.4 17.5 3.3 24-.3 4.3-2.4 7.5-6.4 15-18.7 8.4-13.7 7-12.9 22.5-13.1h14.6c.7 0 5.2 6.3 10.2 13.9a96.5 96.5 0 0 0 11.5 15.5c5.2 3.4 11 4.2 20 2.7 4.5-.7 11-2.1 14.2-3.2 25.6-8.1 26-8.2 30.2-12.5a21 21 0 0 0 5.2-8c1-3.3 1.6-14.2 2-30.9.1-3.7.5-4.2 4.4-6.4l10.7-6.3c12-7.4 9.5-7.4 25 .4 23.7 12.1 27.5 11.3 48.6-10.4 7.2-7.2 14.5-15.5 16.4-18.2 3.2-4.6 3.5-5.6 3.5-12.5 0-6.7-.3-8.1-3-12.5A122.5 122.5 0 0 1 481 408c0-.8 2.7-6.2 6-11.9s6-10.8 6-11.3c0-2.3 7.3-3.8 18.2-3.8 20 0 27.2-4.1 32-17.8 2.5-7 8.3-31 9.2-37.5 1-7.8-1-14.3-5.8-19.2-2.3-2.3-5.9-5-7.9-6.1-2-1-7.3-4.2-11.7-6.9l-7.9-5v-10c0-5.5-.4-12.3-.7-15l-.6-5L528 252c16.6-10.6 18.2-12 21.4-18.4 3-5.7 3-6 1.8-13a193 193 0 0 0-6.2-26.1l-2-5.5a64.4 64.4 0 0 0-7.6-15.6c-5.3-5.9-10-7.3-25.7-7.5-17.5-.2-18-.3-20.7-5.2l-7.2-12.3a74 74 0 0 1-4.8-9c0-.4 3.2-7.1 7.2-14.8 6.5-12.9 7.1-14.6 7.1-20.2.1-8.5-3-12.9-20.6-30.1-21-20.4-25.7-22-41.4-13.7L414 68.7l-6.5 3.4-12.4-7a282 282 0 0 1-13.2-7.8c-.4-.4-1-7.7-1.3-16-.4-12.3-.9-16.1-2.5-19.7-2.7-5.7-7.7-10-14.3-12.1A152.2 152.2 0 0 0 321.6 0c-11 0-13.7 2.1-24.6 19.4l-8.5 13.5-10.7.3-15.4.3h-4.6l-6.3-10c-9-14.4-12.8-18.9-16.9-20.9-5-2.4-12-2.8-19.6-1.1zm82.2 67.6a214.7 214.7 0 0 1 56.3 13.8 211.1 211.1 0 0 1 105.8 94.6 169.1 169.1 0 0 1 13.1 30 112.6 112.6 0 0 1 7.1 26.5 35 35 0 0 0 1.5 5.5 212 212 0 0 1 3 37.6 216 216 0 0 1-5.9 48.4c-4.4 23.4-22 59.6-39.8 81.5a265.6 265.6 0 0 1-40.8 38.8c-10.8 8-36.9 22.2-41 22.2-1.2 0-2.5.3-2.8.7a94.5 94.5 0 0 1-21 7.3 49 49 0 0 0-10 2.4c-4.5 1.5-11 2.7-17 3.2-5.4.4-10 1.1-10.3 1.5-.8 1.3-38.4 1.1-38.4-.1 0-.6-2-1-4.6-1a102 102 0 0 1-20.9-2.9 39.9 39.9 0 0 0-11.7-3.1 40 40 0 0 1-9.6-3c-3.9-1.7-7.6-3-8-3-1 0-6.7-2.5-18.2-7.9-3-1.5-10.2-5.6-16.5-9.4L151 441.3c-9.7-7-38-35.1-38-37.9 0-.7-.9-1.8-2-2.4-1-.6-2-1.6-2-2.3 0-.7-1.3-2.8-2.9-4.8a59.6 59.6 0 0 1-5.6-8.5 31.8 31.8 0 0 0-5-7c-5-5-15.5-30-20.6-49.4l-1.9-7c-.4-1.4-1.3-6.6-1.9-11.5a391 391 0 0 0-2-13.8c-1.4-6.3-1.4-34.5 0-41.6l4.6-27.9c.3-1.8 1-3.5 1.4-3.8.5-.3 1-1.5 1-2.6a135 135 0 0 1 7.6-23.8 225 225 0 0 1 33.6-55.2 208.5 208.5 0 0 1 98-64.8c25-7.7 55.5-10.7 82-7.9z"/><path d="M257 80c-6.2.7-12.5 1.8-23.5 3.9a165.8 165.8 0 0 0-44 15.7A194 194 0 0 0 87 221.5c-.8 1.8-2.5 9.3-5.3 23.5-1.5 7.5-1.4 55.9.1 63l2.1 10.9c2.2 11.9 11.6 38.1 13.6 38.1 2.8 0 23.7-24.3 35.8-41.5 3-4.1 22.7-33.9 30.2-45.5l24.2-37.8 15.1-23.5c4.2-6.4 5-8.1 4.2-10a58.7 58.7 0 0 1-1.9-25.1c2.1-14.5 7.5-21.6 16.4-21.6 6.4 0 9.8 4.9 12 17.3.6 3.5 1 3.8 2.8 3.1a56 56 0 0 1 9.5-1.1l7.2-.5-.2-8.8c-.3-7.7 0-9.2 1.8-11.7 3.6-4.8 12.4-5.6 17.2-1.5 4.3 3.7 7.6 12.7 8.5 22.7.2 2.8.5 3 4.7 3.2 7.4.4 26.1 2.3 31.5 3.3 2.8.5 9.2 1.4 14.3 2 14.2 1.6 47.5 8.5 53.7 11 1.1.5 5.2 1.8 9 3 4 1.1 8 2.5 9 2.9l8 3.2c17.4 6.5 21.7 10 23.1 18.6 1 6.2-1.4 30-4.2 40.8-7.6 30.1-28 49.8-46.5 44.7-2.5-.6-5.4-.6-9.6.3-18.7 3.9-36.7 19.2-40.7 34.7-1.6 6.4-.5 12.5 4.2 22 4.6 9.4 6.6 14.3 10.2 24.8 1.7 5.2 3.6 10.4 4 11.5l2 6 2.5 9.5c1.5 5.2 5.6 25.6 7 34.7.4 2.4 1 4.5 1.4 4.7.8.6 17.5-9.2 27.2-16a197 197 0 0 0 61.8-73.8 181.1 181.1 0 0 0 14-38.2 38 38 0 0 0 2-8.9c.7-4.4 1.8-10.3 2.4-13 1.6-6.9 1.5-44.2 0-52.5-.8-3.6-2-9.9-2.7-14a198.4 198.4 0 0 0-115-141.1 207.3 207.3 0 0 0-38-11.5L303 81a277 277 0 0 0-46-1z"/><path d="M260.5 156.2c-.3 1.3-.2 5.4.3 9.3l.7 7 5.3.3 5.2.3V170c0-4.5-2-12.2-3.8-14.3-2.3-2.6-7-2.3-7.7.5z"/><path d="M217.3 161.5c-1.3.9-2.9 3.9-3.8 7.3-2.9 9.9-.8 29 2.6 23 .5-.9 2.4-2.2 4.3-2.8 6.6-2.2 12.8 2.5 18.7 14.1 3.4 6.8 3.4 7.2 1.3 9.3-2.3 2.3-4.9.5-7.8-5.3-3-5.8-7.3-11.1-9-11.1-1.9 0-3.3 2-4 5.7-.7 3.1-.5 3.3 5.8 6.9 3.6 2.1 6.8 4.4 7.1 5.2.6 1.5-2 5.2-3.7 5.2-.9 0-12.3-7.1-14.6-9.1-2-1.7-3.3 0-15.7 19.6a3013.6 3013.6 0 0 1-26.7 41.4c-3.7 5.7-6.8 10.5-6.8 10.8 0 .3-1.3 2.3-2.9 4.6l-7.6 11.7a521.6 521.6 0 0 1-39 52.5l-8 8.3-6.9 7.2 2.1 3.8 4.3 7.7c1.2 2.2 3 4.9 4 6 .8 1.1 2.2 3.3 3 5a28 28 0 0 0 2.7 4.5 261.4 261.4 0 0 0 17.6 20.1c2 2 3.7 4.1 3.7 4.5.1.5 1.4 1.8 3 2.9 2.5 1.7 13.2 10.7 19.7 16.5 1.2 1.1 2.5 2 2.8 2 1 0 9 5.5 9.8 6.7a3 3 0 0 0 2.3 1.3c1 0 2.8.8 4.2 1.8 1.5 1 4.3 2.5 6.2 3.2 2 .8 4.6 2.2 6 3.2 1.2 1 3 1.8 4 1.8.8 0 3.1.8 5.1 1.9a152.8 152.8 0 0 0 30.3 9.9c.4.4 6 1.6 12.4 2.6a269 269 0 0 0 66 0c6.6-1 12.4-2.2 12.8-2.6.4-.5 2-.8 3.5-.8s3.1-.4 3.4-1c.3-.5 2-1 3.5-1 1.6 0 3.1-.4 3.4-.9.3-.5 3.6-1.7 7.3-2.7 9.4-2.5 11.2-3.9 11.3-8.9a180.7 180.7 0 0 0-6-35 291 291 0 0 0-9-30c0-.8-.9-3.4-1.9-5.8-13.6-29.6-14.6-33-13.2-43.3 1.5-10 9.3-21.4 21.1-30.6a72 72 0 0 1 22.4-10.9l2.4-1.1-1.9-3.2c-3-5.1-2.2-12.2 1.7-13.2 2-.5 3.3.3 6.7 3.9 5.2 5.3 7.4 6.1 13.4 5.2 8.7-1.3 17-13.3 18-26.5.8-9.6-.6-13.1-8-19.2-9.4-7.7-11.7-11.6-11.7-20 0-7.8 2.2-13.2 6.7-16.8 2.7-2.1 2.7-2.2 1-3.6a7.5 7.5 0 0 0-3.7-1.4 236 236 0 0 0-36.5-9.9 535.5 535.5 0 0 0-53-8l-15.5-1.7a599 599 0 0 0-17-1.4l-22.2-1.6c-7.6-.6-8.8-.5-8.8.9 0 1.2 1 1.5 4.3 1.4 3.7-.2 4.2.1 4.5 2.1.5 3.6-1.5 5.2-6.6 5.2-5.8 0-11.3-3.6-13.4-8.8a39.7 39.7 0 0 1-3.8-13.6c0-6-3.3-8.2-7.7-5.1zm112.1 35a30 30 0 0 1 14.8 15.7c1 3.4 1 4.2-.9 6.6a26 26 0 0 1-14.4 8.1c-7.4 1.6-11.4 0-19-7.9a95.6 95.6 0 0 0-11.3-9.9l-4.6-3.2 2.2-2.9a29 29 0 0 1 33.2-6.5z"/><path d="M403.7 210.3c-8 4.9-10.2 14-4.9 21 4.1 5.4 5.2 4.8 5.2-2.7 0-5.5.4-6.9 2.6-9.5 7.8-9.4 16.2 5.3 9 15.8a15.4 15.4 0 0 1-4.2 4.5c-1 .4-.8 1.7 1.8 6.3 3.1 5.4 3.3 6.4 3.3 15 0 5.8-.5 9.7-1.3 10.5-.7.7-1.2 2.1-1 3.2 0 2 0 2 1.6-.3 5.7-8.2 12.1-39 10.8-52.1-.6-6.1-1.7-7.4-10.5-11.5-6.6-3.1-7.6-3.1-12.4-.2z"/></svg>