<svg width="873" height="319" viewBox="0 0 873 319" xmlns="http://www.w3.org/2000/svg"><title>1D4D7066-1334-4F7A-834A-E0679D858983</title><g fill="none" fill-rule="evenodd"><path d="M360 37.498V311h-36V96.258l14.677 8.142c1.461.811 2.824 3.127 2.824 4.81V311h6V109.21c0-3.862-2.544-8.187-5.913-10.056L324 89.397V46.115c0-1.102.551-2.7 1.229-3.569l15.487-19.84L360 37.497zm0-7.562l-15.592-11.96 12.515-16.034C358.623-.235 360 .23 360 2.996v26.94zm-76.713 166.722l9.483 8.412c1.42 1.26 2.73 4.172 2.73 6.069V307H289v6h-17V212.729c0-1.098.535-2.709 1.195-3.586 0 0 8.201-10.953 9.542-12.117.162-.142.348-.263.55-.368zM287 191.93v-50.927c0-1.107.545-2.713 1.221-3.591l17.558-22.826c.674-.876 1.221-.7 1.221.412v24.322c0 1.104.43 2.78.965 3.75l5.586 10.135c.8 1.451 1.449 3.966 1.449 5.633V313.32h-9V307h-4.5v-95.861c0-3.612-2.044-8.158-4.749-10.557L287 191.93zm-197 1.291V312h36V193c0-1.657-.57-4.212-1.28-5.719L105.53 146.5c-.706-1.502-1.278-1.369-1.278.282v25.894c0 1.657-1.002 3.91-2.227 5.02l-9.798 8.881c-.21.191-.414.415-.607.664l8.24 4.681c3.344 1.9 5.869 6.237 5.869 10.089v106.98h-6v-106.98c0-1.693-1.365-4.038-2.832-4.872L90 193.221zM421.825 137H432c1.105 0 2 .9 2 1.995V316h-34v-6h-7l-.013-1.5L370 310v-79.81l29.175-48.595c1.995-3.322 1.993-8.342 0-11.662L374 128h17.37L391 86.59l5-4.125L397 47h5s-.292 8.209-.316 17.945c-.03 12.276.367 26.98 2.316 30.717 3.495 6.7 15 8.247 15 8.247l1.028 26.485-7.871 7.601c-2.574 2.486-4.518 7.06-4.518 10.631v163.405h6V148.626c0-1.943 1.282-4.959 2.686-6.315l5.5-5.311zM370 218.534v-85.539l24.031 40.027c.852 1.42.853 4.064 0 5.484L370 218.534zM174.726 162.61c4.624 3.695 10.745 8.841 10.745 8.841.844.707 1.529 2.17 1.529 3.278V315h-15v1h-30V44.01c0-1.124.675-1.425 1.508-.703l26.984 23.386c.825.715 1.508 2.2 1.508 3.303v87.27l-3.882 1.951c-3.481 1.75-6.118 6.026-6.118 9.925V310h6V169.142c0-1.63 1.358-3.832 2.813-4.564l3.913-1.967z" fill="#3A3836"/><path d="M749.321 245l19.153-19h50.378c4.13 0 9.458-2.263 12.323-5.235L872.22 178.2v25.311l-35.972 38.068c-1.713 1.813-5.446 3.422-7.931 3.422H749.32zm-6.048 6h85.044c4.136 0 9.446-2.29 12.292-5.301l31.61-33.453v106.466H5.538a4.996 4.996 0 0 1-4.997-5.008v-2.473a5.003 5.003 0 0 1 5.007-5.008h522.798c3.31 0 8.407-1.173 11.386-2.622l49.664-24.15c4.964-2.414 13.461-4.37 18.988-4.37h100.618c5.522 0 13.181-3.158 17.094-7.04L743.273 251zm31.25-31l97.697-96.918v46.473l-45.364 47.046c-1.734 1.798-5.504 3.399-8.004 3.399h-44.33z" fill="#3A3836"/><path d="M30.247 252.221c-.413-1.6-1.083-1.596-1.495 0l-10.035 38.882c-.413 1.6.592 2.897 2.244 2.897h17.078c1.652 0 2.656-1.3 2.244-2.897l-10.036-38.882z" fill="#59B26E"/><path fill="#C1C1C0" d="M32 294h-5v12h5z"/><path d="M621.686 161.66c.173-1.647.455-1.644.628 0l10.372 98.358c.173 1.647-1.03 2.982-2.687 2.982H614c-1.657 0-2.86-1.338-2.687-2.982l10.372-98.359z" fill="#59B26E"/><path fill="#C1C1C0" d="M620 263h4v12h-4z"/><path d="M670.592 185.604c.225-1.645.59-1.651.816 0l10.184 74.416c.225 1.646-.935 2.98-2.593 2.98H663c-1.657 0-2.82-1.328-2.593-2.98l10.184-74.416z" fill="#59B26E"/><path fill="#C1C1C0" d="M669 263h4v12h-4z"/><path d="M523.75 163.86c.138-1.652.36-1.662.5 0l10.5 126.148c.138 1.652-1.093 2.992-2.751 2.992H516c-1.657 0-2.89-1.33-2.752-2.992l10.502-126.147z" fill="#59B26E"/><path fill="#C1C1C0" d="M522 293h4v12h-4z"/><path d="M484.592 215.604c.225-1.645.59-1.651.816 0l10.184 74.416c.225 1.646-.935 2.98-2.593 2.98H477c-1.657 0-2.82-1.328-2.593-2.98l10.184-74.416z" fill="#59B26E"/><path fill="#C1C1C0" d="M483 293h4v12h-4z"/></g></svg>