<svg width="670" height="188" viewBox="0 0 670 188" xmlns="http://www.w3.org/2000/svg"><title>AF9E1116-87D5-4082-8A67-350F955A576B</title><g fill="none" fill-rule="evenodd"><path d="M-62 105V85h94.995l20.161 20H-62zm0 5v76.393l726.679.876a4.993 4.993 0 0 0 5-4.992v-3.375a4.999 4.999 0 0 0-4.996-4.998H281.889c-3.318 0-8.422-1.174-11.4-2.622l-49.664-24.15c-4.965-2.414-13.461-4.371-18.988-4.371H101.219c-5.522 0-13.181-3.158-17.094-7.04L57.54 109.35v.65H-62zm0-30V-9.237L27.955 80H-62z" fill="#3A3836"/><path d="M599.314 60.66c-.173-1.647-.455-1.644-.628 0l-10.372 98.358c-.173 1.647 1.03 2.982 2.687 2.982H607c1.657 0 2.86-1.338 2.687-2.982L599.314 60.66z" fill="#59B26E"/><path fill="#33312F" opacity=".3" d="M601 162h-4v12h4z"/><path d="M567.25 32.86c-.138-1.652-.36-1.662-.5 0l-10.5 126.148c-.139 1.652 1.092 2.992 2.75 2.992h16c1.657 0 2.89-1.33 2.752-2.992L567.249 32.86z" fill="#59B26E"/><path fill="#33312F" opacity=".3" d="M569 162h-4v12h4z"/><path d="M123.25 1.86c-.138-1.652-.36-1.662-.5 0l-10.5 126.148c-.139 1.652 1.092 2.992 2.75 2.992h16c1.657 0 2.89-1.33 2.752-2.992L123.249 1.86z" fill="#59B26E"/><path fill="#33312F" opacity=".3" d="M125 131h-4v12h4z"/><path d="M510.408 84.604c-.225-1.645-.59-1.651-.816 0l-10.184 74.416c-.225 1.646.935 2.98 2.593 2.98H518c1.657 0 2.82-1.328 2.593-2.98l-10.184-74.416z" fill="#59B26E"/><path fill="#33312F" opacity=".3" d="M512 162h-4v12h4z"/><path d="M154.717 89.238c-.396-1.61-1.04-1.6-1.435 0l-9.565 38.848c-.396 1.61.626 2.914 2.284 2.914H162c1.657 0 2.678-1.313 2.283-2.914l-9.565-38.848z" fill="#59B26E"/><path fill="#33312F" opacity=".3" d="M156 131h-4v12h4z"/><path d="M431.717 120.238c-.396-1.61-1.04-1.6-1.435 0l-9.565 38.848c-.396 1.61.626 2.914 2.284 2.914H439c1.657 0 2.678-1.313 2.283-2.914l-9.565-38.848z" fill="#59B26E"/><path fill="#33312F" opacity=".3" d="M433 162h-4v12h4z"/></g></svg>