<svg width="941" height="201" viewBox="0 0 941 201" xmlns="http://www.w3.org/2000/svg"><title>04833541-3AE3-4512-AAB7-CF362EA4D817</title><g fill="none" fill-rule="evenodd"><path fill="#618CAC" d="M526.776 175.318H262.927v14.764h263.849z"/><path d="M36.296 162.468h149.24c3.257 0 7.35 1.818 9.528 4.232l28.106 31.15c.99 1.097 3.065 2.114 4.718 2.382h707.16c6.186 0 7.81-3.703 3.625-8.273l-34.87-38.08H855.74c-3.784 0-8.597-2.141-11.13-4.953l-34.12-37.867c-1.51-1.676-4.866-3.168-7.128-3.168h-203.52l-82.107 75.7c-2.73 2.518-7.949 4.556-11.658 4.556h-90.233c-3.052 0-7.753-1.082-10.5-2.419l-45.818-22.284c-4.58-2.227-12.424-4.033-17.519-4.033H218.294c-2.493 0-5.868-1.487-7.546-3.32l-7.8-8.523H52.413l-16.118 14.9zm-5.84 5.4L2.224 193.966c-3.743 3.46-2.656 6.266 2.455 6.266h213.365l-26.99-29.914c-1.154-1.279-3.79-2.45-5.519-2.45H30.456zm27.8-25.7h139.749l-2.94-3.212-24.742-25.545c-2.13-2.199-6.326-3.982-9.398-3.982h-22.13c-3.06 0-7.074-1.958-8.952-4.359l-8.646-11.05c-2.513-3.211-6.974-3.58-9.984-.81l-52.958 48.958zm840.602 6.312l-16.18-17.668h-15.67c-3.788 0-8.604-2.142-11.138-4.954L821.75 87.99c-1.508-1.674-4.867-3.168-7.119-3.168H624.863L605.7 102.49h197.662c3.792 0 8.605 2.14 11.139 4.954l34.12 37.866c1.51 1.676 4.865 3.169 7.119 3.169h43.118zm-21.124-23.068l-61.701-67.38-30.037-31.052c-2.586-2.674-7.346-3.444-10.633-1.72l-11.619 6.096c-3.286 1.724-8.043.962-10.63-1.709l-26.04-26.87c-3.446-3.555-9.183-3.723-12.837-.354l-83.517 77h183.911c3.782 0 8.598 2.143 11.13 4.953l34.121 37.867c1.51 1.675 4.867 3.169 7.125 3.169h10.727z" fill="#EAE7E3"/><path d="M311.182 54.986c-.156-1.485-.41-1.488-.566 0l-9.582 90.885c-.156 1.485.926 2.688 2.412 2.688h14.906c1.488 0 2.569-1.2 2.412-2.688l-9.582-90.885z" fill="#59B26E"/><path fill-opacity=".2" fill="#EBE8E4" d="M312.744 148.56h-3.69v11.072h3.69z"/><path d="M248.39 29.326c-.124-1.485-.325-1.482-.448 0l-9.7 116.544c-.124 1.485.984 2.69 2.47 2.69h14.907c1.488 0 2.594-1.208 2.47-2.69l-9.7-116.544z" fill="#59B26E"/><path fill-opacity=".2" fill="#EBE8E4" d="M250.01 148.559h-3.69v11.073h3.69z"/><path d="M284.512 77.078c-.203-1.482-.53-1.489-.734 0l-9.414 68.798c-.203 1.482.842 2.683 2.328 2.683h14.906c1.488 0 2.532-1.195 2.328-2.683l-9.414-68.798z" fill="#59B26E"/><path fill-opacity=".2" fill="#EBE8E4" d="M285.99 148.559h-3.69v11.073h3.69z"/></g></svg>